<mxfile host="app.diagrams.net" modified="2024-04-28T16:32:27.575Z" agent="Mozilla/5.0 (X11; Linux x86_64; rv:125.0) Gecko/20100101 Firefox/125.0" etag="A8a4YOEP0hvS26780zza" version="24.3.1" type="device">
  <diagram name="Page-1" id="RTTO8tOLh8GNL-hX-Orm">
    <mxGraphModel dx="1154" dy="772" grid="1" gridSize="10" guides="1" tooltips="1" connect="1" arrows="1" fold="1" page="1" pageScale="1" pageWidth="850" pageHeight="1100" math="0" shadow="0">
      <root>
        <mxCell id="0" />
        <mxCell id="1" parent="0" />
        <mxCell id="-Vs8PVCT6BudwXR5PpRj-5" style="edgeStyle=orthogonalEdgeStyle;rounded=0;orthogonalLoop=1;jettySize=auto;html=1;exitX=1;exitY=0.5;exitDx=0;exitDy=0;entryX=0;entryY=0.5;entryDx=0;entryDy=0;" edge="1" parent="1" source="-Vs8PVCT6BudwXR5PpRj-1" target="-Vs8PVCT6BudwXR5PpRj-3">
          <mxGeometry relative="1" as="geometry" />
        </mxCell>
        <mxCell id="-Vs8PVCT6BudwXR5PpRj-1" value="&lt;font style=&quot;font-size: 20px;&quot;&gt;Requirements&lt;/font&gt;" style="rounded=1;whiteSpace=wrap;html=1;" vertex="1" parent="1">
          <mxGeometry x="130" y="160" width="180" height="90" as="geometry" />
        </mxCell>
        <mxCell id="-Vs8PVCT6BudwXR5PpRj-6" style="edgeStyle=orthogonalEdgeStyle;rounded=0;orthogonalLoop=1;jettySize=auto;html=1;exitX=1;exitY=0.5;exitDx=0;exitDy=0;entryX=0;entryY=0.5;entryDx=0;entryDy=0;" edge="1" parent="1" source="-Vs8PVCT6BudwXR5PpRj-3" target="-Vs8PVCT6BudwXR5PpRj-4">
          <mxGeometry relative="1" as="geometry" />
        </mxCell>
        <mxCell id="-Vs8PVCT6BudwXR5PpRj-3" value="&lt;font style=&quot;font-size: 20px;&quot;&gt;Learning &amp;amp; Basic Setup&lt;/font&gt;" style="rounded=1;whiteSpace=wrap;html=1;" vertex="1" parent="1">
          <mxGeometry x="410" y="160" width="180" height="90" as="geometry" />
        </mxCell>
        <mxCell id="-Vs8PVCT6BudwXR5PpRj-4" value="&lt;font style=&quot;font-size: 20px;&quot;&gt;Graph Rendering&lt;/font&gt;" style="rounded=1;whiteSpace=wrap;html=1;" vertex="1" parent="1">
          <mxGeometry x="690" y="160" width="180" height="90" as="geometry" />
        </mxCell>
        <mxCell id="-Vs8PVCT6BudwXR5PpRj-10" style="edgeStyle=orthogonalEdgeStyle;rounded=0;orthogonalLoop=1;jettySize=auto;html=1;exitX=1;exitY=0.5;exitDx=0;exitDy=0;entryX=0;entryY=0.5;entryDx=0;entryDy=0;" edge="1" parent="1" source="-Vs8PVCT6BudwXR5PpRj-7" target="-Vs8PVCT6BudwXR5PpRj-9">
          <mxGeometry relative="1" as="geometry" />
        </mxCell>
        <mxCell id="-Vs8PVCT6BudwXR5PpRj-7" value="&lt;font style=&quot;font-size: 20px;&quot;&gt;Model Parsing&lt;/font&gt;" style="rounded=1;whiteSpace=wrap;html=1;" vertex="1" parent="1">
          <mxGeometry x="270" y="340" width="180" height="90" as="geometry" />
        </mxCell>
        <mxCell id="-Vs8PVCT6BudwXR5PpRj-8" style="edgeStyle=orthogonalEdgeStyle;rounded=0;orthogonalLoop=1;jettySize=auto;html=1;exitX=0.5;exitY=1;exitDx=0;exitDy=0;entryX=0.5;entryY=0;entryDx=0;entryDy=0;" edge="1" parent="1" source="-Vs8PVCT6BudwXR5PpRj-4" target="-Vs8PVCT6BudwXR5PpRj-7">
          <mxGeometry relative="1" as="geometry" />
        </mxCell>
        <mxCell id="-Vs8PVCT6BudwXR5PpRj-9" value="&lt;font style=&quot;font-size: 20px;&quot;&gt;Additional Features&lt;/font&gt;" style="rounded=1;whiteSpace=wrap;html=1;" vertex="1" parent="1">
          <mxGeometry x="550" y="340" width="180" height="90" as="geometry" />
        </mxCell>
      </root>
    </mxGraphModel>
  </diagram>
</mxfile>
